<?xml version="1.0" encoding="UTF-8"?>
<svg version="1.1" viewBox="0 0 1600 1600" width="75" height="75" xmlns="http://www.w3.org/2000/svg">
<path transform="translate(484 613)" d="m0 0c1.37 0.00772 1.37 0.00772 2.77 0.0156 1.45-0.00362 1.45-0.00362 2.93-0.00732 3.26-0.00566 6.52 0.00305 9.78 0.0116 2.33-0.00107 4.66-0.00301 6.99-0.00575 6.34-0.00486 12.7 0.00283 19 0.013 5.96 0.00788 11.9 0.00716 17.9 0.00672 11.8-5.01e-4 23.6 0.00867 35.5 0.0232 11.5 0.0141 22.9 0.0212 34.4 0.0205 1.06-5.99e-5 1.06-5.99e-5 2.14-1.21e-4 0.704-4.04e-5 1.41-8.07e-5 2.13-1.22e-4 13.7-7.26e-4 27.4 0.00627 41.1 0.0154 3.95 0.00213 7.9 0.00284 11.8 0.00324 6.22 0.00101 12.4 0.00713 18.7 0.0172 2.28 0.00291 4.56 0.00415 6.84 0.00357 3.12-4.93e-4 6.24 0.00519 9.36 0.0124 0.896-0.00155 1.79-0.0031 2.71-0.00469 16.4 0.0625 16.4 0.0625 18.5 2.14 0.099 2.72 0.132 5.41 0.123 8.13 0.00115 0.867 0.00231 1.73 0.0035 2.63 0.00267 2.94-0.00186 5.89-0.00629 8.83 4.36e-4 2.12 0.00131 4.23 0.00259 6.35 0.00225 5.85-0.00178 11.7-0.00678 17.5-0.0043 6.29-0.00286 12.6-0.0021 18.9 5.26e-4 10.9-0.00259 21.8-0.00824 32.7-0.00591 11.5-0.00976 22.9-0.0109 34.4-6.87e-5 0.711-1.37e-4 1.42-2.08e-4 2.15-3.38e-4 3.61-6.4e-4 7.22-9.27e-4 10.8-0.0021 25.6-0.00884 51.2-0.0183 76.8-0.00918 24.9-0.0163 49.7-0.0205 74.6-1.32e-4 0.766-2.63e-4 1.53-3.99e-4 2.32-0.00132 7.7-0.00259 15.4-0.00384 23.1-0.00254 15.7-0.00536 31.4-0.00835 47-1.37e-4 0.721-2.75e-4 1.44-4.16e-4 2.18-0.00921 48.2-0.0251 96.3-0.0419 144-14.7 0.0233-29.4 0.041-44.1 0.0518-6.83 0.00516-13.7 0.0122-20.5 0.0236-6.59 0.011-13.2 0.0168-19.8 0.0194-2.52 0.00185-5.04 0.00548-7.56 0.0109-3.52 0.00721-7.03 0.00826-10.5 0.0078-1.05 0.0036-2.11 0.00719-3.19 0.0109-0.952-0.00137-1.9-0.00275-2.89-0.00417-1.25 0.00138-1.25 0.00138-2.52 0.00279-1.89-0.123-1.89-0.123-2.89-1.12-0.0983-1.37-0.128-2.75-0.129-4.13-0.00311-0.887-0.00622-1.77-0.00943-2.69 0.00198-0.977 0.00397-1.95 0.00601-2.96-0.00132-1.01-0.00264-2.03-4e-3 -3.08-0.00194-3.36 0.00449-6.72 0.0118-10.1 8.86e-4 -1.16 0.00177-2.32 0.00269-3.52 0.0139-15.6 0.229-31.2 0.694-46.7 0.555-19.1 0.512-38.3 0.491-57.4-8.56e-4 -0.804-0.00171-1.61-0.00259-2.44-0.0114-9.98-0.0316-20-0.0599-29.9h-3c-0.0142 0.683-0.0284 1.37-0.043 2.07-0.691 14.6-4.75 28.8-8.58 42.9-0.194 0.714-0.387 1.43-0.587 2.16-1.26 4.49-2.89 8.64-4.79 12.9-0.61 1.56-1.21 3.12-1.81 4.69-5.71 14.3-13.3 26.6-23.2 38.3-1.06 1.4-1.06 1.4-2.15 2.82-0.917 1.08-0.917 1.08-1.85 2.18h-2c-0.66 1.32-1.32 2.64-2 4h-2c-0.33 0.99-0.66 1.98-1 3-4.12 3.01-8.56 5.5-13 8-0.825 0.469-1.65 0.938-2.5 1.42-9.75 4.94-20.9 7.15-31.5 9.58-1.26 0.301-1.26 0.301-2.55 0.609-8.57 1.82-17.2 1.74-25.9 1.7-1.2-0.00273-1.2-0.00273-2.42-0.00552-20.8-0.08-41.6-1.95-60.1-12.3-1.39-0.693-2.79-1.38-4.19-2.06-6.08-3.06-6.08-3.06-8.81-4.94v-2c-1.1-0.391-1.1-0.391-2.21-0.789-7.58-3.29-13.6-9.84-19.4-15.6-0.533-0.524-1.07-1.05-1.62-1.59-3.76-3.79-3.76-3.79-3.76-6.04h-2c-1.48-2.08-2.81-4.13-4.12-6.31-0.559-0.892-0.559-0.892-1.13-1.8-2.75-4.5-2.75-4.5-2.75-7.88h-2c-11-20.9-11.7-47.6-5-70 0.182-0.646 0.364-1.29 0.551-1.96 3.05-10.1 8.16-19.6 14.2-28.2 1.39-1.93 1.39-1.93 2.83-4.57 1.44-2.25 1.44-2.25 4-4.75 2.45-2.52 3.26-4.26 4.44-7.5-1.13-0.0606-2.27-0.121-3.44-0.184-1.52-0.0845-3.04-0.169-4.56-0.254-1.12-0.059-1.12-0.059-2.25-0.119-14.1-0.797-14.1-0.797-15.7-2.44-2.22-0.445-4.45-0.855-6.69-1.25-13.2-2.54-24.2-7.3-35.3-14.8-0.99-0.66-1.98-1.32-3-2v-2c-1.32-0.33-2.64-0.66-4-1v-2c-0.568-0.224-1.14-0.449-1.72-0.68-6.74-3.91-13-13.3-16.3-20.3v-3h-2c-4.39-11.7-4.39-11.7-5.19-13.9-0.528-1.39-1.07-2.78-1.63-4.16-1.87-4.69-2.78-8.94-3.36-14-0.0819-0.679-0.164-1.36-0.248-2.06-0.197-1.65-0.382-3.29-0.564-4.94h-1c-1.73-15.5-2.22-30.9-2.25-46.5-5e-3 -0.898-0.00999-1.8-0.0151-2.72-0.0119-2.6-0.00876-5.21-4.88e-4 -7.81-0.00397-0.771-0.00794-1.54-0.012-2.34 0.0554-6.59 0.358-13.2 4.59-18.5 4.77-3.77 7.74-5.51 13.9-5.38 14.3 0.253 28.6 0.275 42.9-0.157 26.3-0.772 52.5-0.703 78.8-0.654 6.24 0.0105 12.5 0.0148 18.7 0.0198 12.1 0.0105 24.2 0.0275 36.3 0.0488-0.33-0.66-0.66-1.32-1-2-0.109-1.74-0.155-3.49-0.172-5.24-0.0127-1.11-0.0254-2.22-0.0384-3.37-0.0089-1.22-0.0178-2.45-0.027-3.71-0.0131-1.28-0.0262-2.57-0.0397-3.89-0.0356-3.53-0.0649-7.06-0.0924-10.6-0.0175-2.2-0.0364-4.41-0.0558-6.61-0.0676-7.68-0.13-15.4-0.188-23-0.0539-7.17-0.119-14.3-0.189-21.5-0.0598-6.15-0.112-12.3-0.158-18.4-0.0276-3.67-0.0585-7.35-0.097-11-0.0427-4.09-0.0693-8.19-0.0943-12.3-0.0225-1.84-0.0225-1.84-0.0454-3.71-0.00422-1.11-0.00844-2.22-0.0128-3.37-0.00792-0.969-0.0158-1.94-0.024-2.94 0.534-5.27 4.27-4.54 8.67-4.56zm-195 233 1 2zm104 77 1 2zm221 33 1 2zm-248 14 1 2z" fill="#5A6C68"/>
<path transform="translate(1114 615)" d="m0 0c0.727 0.00562 1.45 0.0112 2.2 0.017 1.15-0.00285 1.15-0.00285 2.32-0.00575 2.54-0.00372 5.09 0.00702 7.63 0.0182 1.77 0.00119 3.54 0.00164 5.31 0.00139 3.72 0.00157 7.43 0.00987 11.1 0.0233 4.75 0.0169 9.49 0.0208 14.2 0.0201 3.66 2.73e-4 7.32 0.00578 11 0.013 1.75 0.00317 3.5 0.00515 5.24 0.00589 2.46 0.00219 4.91 0.011 7.37 0.0216 0.713-4.53e-4 1.43-9.06e-4 2.16-0.00137 14.1 0.0882 14.1 0.0882 16.2 2.15 0.0998 2.56 0.134 5.09 0.126 7.65 0.00145 0.815 0.00291 1.63 0.0044 2.47 0.00369 2.77 1.61e-4 5.53-0.00326 8.3 0.00115 1.99 0.00274 3.98 0.00473 5.96 0.0042 5.49 0.0021 11-9.86e-4 16.5-0.00225 5.91 0.00122 11.8 0.00398 17.7 0.0042 10.9 0.00382 21.8 0.00109 32.8-0.00251 10.1-0.00317 20.2-0.00198 30.3 1.15e-4 1 1.15e-4 1 2.31e-4 2.02 3.11e-4 2.71 6.3e-4 5.42 9.6e-4 8.13 0.00306 25.5 2.81e-4 50.9-0.0051 76.4-0.00475 22.6-0.00432 45.3 4.61e-4 67.9 0.00535 25.4 0.00748 50.8 0.00439 76.2-3.21e-4 2.71-6.34e-4 5.41-9.43e-4 8.12-7.91e-5 0.666-1.58e-4 1.33-2.4e-4 2.02-0.00114 10.1 1.97e-4 20.2 0.00272 30.2 0.0028 11.5 0.00206 22.9-0.00328 34.4-0.00264 5.85-0.00364 11.7-3.51e-4 17.6 0.00296 5.35 0.00137 10.7-0.00398 16-0.00113 1.94-5.31e-4 3.89 0.00188 5.83 3e-3 2.62-3.83e-5 5.25-0.00472 7.87 0.00234 0.77 0.00468 1.54 0.00709 2.33-0.0188 5.2-0.0188 5.2-1.13 6.31-2.69 0.116-5.35 0.168-8.04 0.177-0.842 0.00657-1.68 0.0131-2.55 0.0199-2.8 0.0198-5.6 0.0314-8.4 0.0414-1.43 0.00611-1.43 0.00611-2.89 0.0124-5.05 0.0209-10.1 0.0352-15.1 0.0445-5.22 0.0111-10.4 0.0455-15.7 0.0852-4.01 0.0261-8.02 0.0345-12 0.0381-1.93 0.00488-3.85 0.0165-5.78 0.035-2.69 0.0243-5.39 0.0234-8.08 0.0165-1.2 0.0192-1.2 0.0192-2.42 0.0388-3.38-0.0319-5.5-0.113-8.21-2.22-2.14-2.74-2.29-3.98-2.29-7.42-0.00796-1.04-0.0159-2.09-0.0241-3.16 0.0175-1.72 0.0175-1.72 0.0353-3.47-0.00342-1.22-0.00684-2.43-0.0104-3.69-0.00546-3.38 0.00707-6.75 0.0271-10.1 0.0173-3.64 0.0114-7.28 0.00839-10.9-0.0021-6.31 0.0105-12.6 0.033-18.9 0.0325-9.12 0.0429-18.2 0.048-27.4 0.00876-14.8 0.0354-29.6 0.0732-44.4 0.0367-14.4 0.065-28.8 0.082-43.1 0.00105-0.886 0.0021-1.77 0.00318-2.69 0.00522-4.45 0.0103-8.89 0.0152-13.3 0.0415-36.9 0.112-73.8 0.201-111-12.4-0.0466-24.8-0.082-37.2-0.104-5.75-0.0104-11.5-0.0245-17.3-0.0473-5.56-0.0219-11.1-0.0337-16.7-0.0389-2.11-0.00367-4.22-0.0108-6.33-0.0217-26.4-0.13-50.2 2.9-70.3 21.9-7.42 7.9-8.85 17-8.75 27.5-0.00402 1.71-0.00402 1.71-0.00812 3.46-4.37e-4 3.69 0.031 7.37 0.0667 11.1 0.00615 1.26 0.0123 2.51 0.0186 3.8 0.128 25.5 1.68 50.5 6.42 75.6 0.359 2.19 0.714 4.37 1.06 6.56 1.25 7.46 2.98 14.7 4.88 22.1 0.318 1.23 0.637 2.46 0.965 3.73 1.12 3.73 2.53 7.09 4.1 10.6 0.417 1.31 0.816 2.62 1.19 3.94 2.17 6.71 5.61 12.9 8.83 19.1 0.872 1.72 1.7 3.47 2.52 5.22 3.61 7.67 8.23 14.1 13.5 20.7 1.05 1.41 2.09 2.83 3.12 4.25 3.09 4.11 6.43 7.94 9.88 11.8 0.838 0.931 1.68 1.86 2.54 2.82 8.87 9.8 18 19.4 28.3 27.6 1.42 1.14 2.8 2.33 4.17 3.53v2c0.585 0.267 1.17 0.534 1.77 0.809 2.27 1.22 3.94 2.53 5.85 4.25 0.69 0.617 1.38 1.23 2.09 1.87 0.754 0.682 1.51 1.36 2.29 2.07 0.847 0.754 1.69 1.51 2.57 2.29 18.6 16.6 18.6 16.6 21.4 25.7 0.125 2.81 0.125 2.81 0 5-9.81-1.11-18.8-3.58-28-7-0.985-0.358-1.97-0.717-2.98-1.09-8.7-3.39-16.7-8.04-24.8-12.7-2.28-1.29-4.57-2.56-6.86-3.83-8.92-4.95-17.5-10.3-25.7-16.4-1.8-1.34-3.63-2.66-5.46-3.96-5.65-4-10.9-8.24-15.9-13-2.31-2.16-2.31-2.16-5.08-4.22-0.73-0.614-1.46-1.23-2.21-1.86v-2c-0.928-0.371-0.928-0.371-1.88-0.75-2.51-1.48-2.89-2.69-4.12-5.25-0.99-0.33-1.98-0.66-3-1-1.8-2.05-3.47-4.09-5.12-6.25-0.484-0.628-0.969-1.26-1.47-1.9-14.6-19-26-39.7-32.4-62.8-0.51-1.57-1.03-3.13-1.56-4.69-0.481-1.44-0.96-2.87-1.44-4.31-0.238-0.709-0.475-1.42-0.72-2.15-2.2-6.9-3.4-13.8-4.47-21-0.177-1.15-0.354-2.29-0.537-3.48-0.431-2.8-0.856-5.6-1.28-8.4h-1c-3.36-26.5-5.18-53.1-5.19-79.8-9.97e-4 -0.67-0.00199-1.34-0.00302-2.03 0.00432-25.4 0.00432-25.4 3.19-30.2 0.307-1.55 0.548-3.12 0.75-4.69 0.859-5.15 2.36-9.82 4.19-14.7 0.253-0.678 0.506-1.36 0.767-2.05 1.46-3.77 3.11-7.17 5.3-10.6 0.816-1.35 0.816-1.35 1.65-2.72 3.09-4.97 6.01-9.3 10.4-13.3 0.602-0.779 1.2-1.56 1.82-2.36 6.2-7.53 15-13.4 23.2-18.6 0.696-0.486 1.39-0.972 2.11-1.47 8.12-4.94 17.8-4.78 27-5.31 1.89-0.0215 1.89-0.0215 2.88-1.22 1.94-0.159 3.89-0.249 5.83-0.312 1.25-0.0413 2.51-0.0827 3.8-0.125 1.39-0.0397 2.79-0.0788 4.18-0.117 0.709-0.0209 1.42-0.0419 2.15-0.0634 15.8-0.462 31.6-0.536 47.4-0.512 3.82 0.00573 7.64 0.00229 11.5-0.00345 17.7-0.0224 35.4 0.218 53.2 1.13-0.33-0.99-0.66-1.98-1-3-0.0946-1.77-0.131-3.55-0.134-5.32-0.0064-1.66-0.0064-1.66-0.0129-3.34 4.53e-4 -1.21 9.06e-4 -2.42 0.00137-3.67-0.00336-1.27-0.00672-2.55-0.0102-3.86-0.00884-3.5-0.0112-7-0.0118-10.5-9.49e-4 -2.92-0.00463-5.84-0.00817-8.75-0.00814-6.88-0.0106-13.8-0.00987-20.6 6.01e-4 -7.11-0.00996-14.2-0.0257-21.3-0.0131-6.1-0.0184-12.2-0.0178-18.3 2.55e-4 -3.64-0.00262-7.29-0.0132-10.9-0.0114-4.06-0.00695-8.12-8.95e-4 -12.2-0.00562-1.21-0.0112-2.43-0.017-3.68 0.00419-1.1 0.00839-2.2 0.0127-3.34-5.45e-4 -0.96-0.00109-1.92-0.00165-2.91 0.517-4.74 3.37-4.52 7.47-4.54zm-134 137v1h5v-1h-5zm-81 79 1 4zm-1 44 1 3zm2 36 1 2zm8 52 1 2z" fill="#5A6B68"/>
<path transform="translate(732,475)" d="m0 0c4.17 3.19 7.91 6.31 10.8 10.7 2.9 4.24 6.34 7.76 9.91 11.4 4.46 4.67 8.86 9.31 12.9 14.4 4.35 5.49 9.12 10.5 13.9 15.6 5.6 5.89 11.1 11.9 16 18.3 4.35 5.49 9.13 10.5 14 15.6 5.84 6.14 11.4 12.5 16.9 19 6.06 7.13 12.3 14.1 18.7 20.9 1.71 1.87 3.42 3.75 5.12 5.62 0.724 0.797 1.45 1.59 2.2 2.41 3.29 3.84 2.82 7.41 2.8 12.2 0.00115 0.872 0.00231 1.74 0.0035 2.64 0.00267 2.95-0.00186 5.91-0.00629 8.86 4.36e-4 2.13 0.00131 4.25 0.00259 6.38 0.00225 5.87-0.00178 11.7-0.00678 17.6-0.0043 6.32-0.00286 12.6-0.0021 19 5.25e-4 11-0.00259 21.9-0.00824 32.9-0.00591 11.5-0.00976 23-0.0109 34.5-6.87e-5 0.714-1.37e-4 1.43-2.08e-4 2.16-3.38e-4 3.63-6.4e-4 7.25-9.27e-4 10.9-0.0021 25.7-0.00884 51.4-0.0183 77.1-0.00918 25-0.0163 49.9-0.0205 74.9-1.32e-4 0.769-2.63e-4 1.54-3.99e-4 2.33-0.00132 7.72-0.00259 15.4-0.00384 23.2-0.00254 15.7-0.00536 31.5-0.00835 47.2-2.06e-4 1.09-2.06e-4 1.09-4.16e-4 2.19-0.0092 48.3-0.0251 96.7-0.0419 145-11.1 0.0231-22.1 0.0409-33.2 0.0518-5.14 0.00523-10.3 0.0123-15.4 0.0236-4.95 0.0108-9.91 0.0168-14.9 0.0194-1.89 0.00185-3.79 0.00548-5.68 0.0109-2.64 0.00721-5.29 0.00826-7.93 0.0078-0.791 0.0036-1.58 0.00719-2.4 0.0109-5.4-0.0104-5.4-0.0104-6.52-1.12-0.0958-2.72-0.125-5.41-0.114-8.14-1.46e-4 -0.867-2.92e-4 -1.73-4.42e-4 -2.63 7.08e-4 -2.94 0.00859-5.89 0.0163-8.83 0.00188-2.12 0.00329-4.23 0.00428-6.35 0.0031-4.62 0.00935-9.25 0.0179-13.9 0.0139-7.52 0.0209-15 0.0268-22.6 0.00665-8.1 0.0137-16.2 0.0232-24.3 0.0224-19.4 0.0304-38.7 0.0275-58.1-3.21e-4 -2.19-6.02e-4 -4.39-8.73e-4 -6.58-0.00141-11.2-0.00342-22.4-0.00548-33.6-0.00212-11.5-0.00356-23.1-0.00397-34.6-3.51e-5 -0.768-7.02e-5 -1.54-1.06e-4 -2.33-9.46e-4 -24.9 0.0248-49.8 0.0633-74.7 0.0394-25.6 0.0491-51.2 0.0225-76.8-0.00373-3.61-0.00711-7.23-0.0103-10.8-6.3e-4 -0.711-0.00126-1.42-0.00191-2.16-0.00923-11.4 0.0131-22.9 0.0473-34.3 0.0338-11.5 0.0344-23 0.00326-34.5-0.0159-6.24-0.0171-12.5 0.0209-18.7 0.0345-5.71 0.0275-11.4-0.0124-17.1-0.00711-2.06 9.6e-4 -4.13 0.0259-6.19 0.311-13.1 0.311-13.1-5.49-24.4-1.51-1.52-3.06-3-4.66-4.43-1.21-1.22-2.42-2.45-3.62-3.69-0.837-0.81-0.837-0.81-1.69-1.64-3.08-3.06-5.86-6.38-8.68-9.68-0.585-0.657-1.17-1.31-1.77-1.99-0.549-0.621-1.1-1.24-1.66-1.88-0.494-0.554-0.987-1.11-1.5-1.68-1.07-1.45-1.07-1.45-1.07-3.45-0.58-0.233-1.16-0.467-1.76-0.707-2.78-1.61-4.16-3.43-6.12-5.98-3.83-4.83-7.88-9.34-12.1-13.8-4.92-5.19-9.52-10.5-14-16.1-2.53-3.04-5.28-5.77-8.11-8.53-8.43-8.36-15-16-15.1-28.3-0.0142-1.1-0.0284-2.2-0.043-3.34 0.548-7.82 4.48-15.7 10.2-21.1 1.97-1.51 3.96-2.86 6.07-4.16 0.624-0.401 1.25-0.802 1.89-1.21 10.2-6.24 22.4-5.4 32.1 1.21z" fill="#5A6C68"/>
<path transform="translate(1305 911)" d="m0 0c1.38 1.31 1.38 1.31 3.12 3.62v2h2c0.651 1.25 1.3 2.5 1.94 3.75 0.539 1.04 0.539 1.04 1.09 2.11 3.49 7.68 3.23 17.7 0.41 25.6-3 6.46-8.03 11.4-14.4 14.6-7.99 2.33-19.7 2.88-27.2-1.06-1.99-1.39-1.99-1.39-3.81-2.94-0.642-0.543-1.28-1.09-1.95-1.64-5.44-5.04-9.5-10.8-10.3-18.4-0.234-10.6 3.19-19.1 10.2-27 11.3-9.67 27-9.31 38.9-0.625z" fill="#5A6B68"/>
<path transform="translate(1298 750)" d="m0 0c7.18 4.03 13.8 10 16.3 18.1 1.75 10.5 1.14 19.6-4.95 28.4-4.07 5.18-9.05 8.82-15.6 10-11.7 0.612-20.1-0.0985-29-8-5-5.01-5-5.01-5-9h-2c-2.83-6.38-3.24-13.9-1.21-20.6 0.964-2.21 2.03-4.3 3.21-6.4 0.412-0.887 0.825-1.77 1.25-2.69 2.69-3.56 6.05-5.87 9.75-8.31 0.608-0.419 1.22-0.838 1.84-1.27 7.98-4.78 17.2-4.04 25.5-0.293z" fill="#5A6B68"/>
<path transform="translate(525 613)" d="m0 0c0.819-8.54e-4 1.64-0.00171 2.48-0.00259 2.73-0.00164 5.46 0.00384 8.19 0.00932 1.96 2.82e-4 3.92 1.23e-4 5.88-4.43e-4 5.32-2.87e-4 10.6 0.00559 15.9 0.0126 5.56 0.00626 11.1 0.00684 16.7 0.00803 10.5 0.00311 21 0.0113 31.6 0.0213 12 0.0112 24 0.0167 35.9 0.0217 24.6 0.0104 49.3 0.028 73.9 0.0503 0.33 1.65 0.66 3.3 1 5 1.13 0.144 2.27 0.289 3.44 0.438 3.56 0.562 3.56 0.562 4.56 1.56 0.102 2.47 0.141 4.91 0.125 7.38-0.00399 1.09-0.00399 1.09-0.00806 2.21-0.0429 4.92-0.305 9.77-0.828 14.7-0.348 3.31-0.601 6.62-0.852 9.94-0.0838 1.11-0.168 2.21-0.254 3.36-0.0606 0.811-0.121 1.62-0.184 2.46h-6c-0.0272-2.21-0.0465-4.42-0.0625-6.62-0.0116-1.23-0.0232-2.46-0.0352-3.73 0.089-3.33 0.461-6.39 1.1-9.65-2.31-0.66-4.62-1.32-7-2-0.33-1.32-0.66-2.64-1-4-1.11 0.309-1.11 0.309-2.25 0.625-3.07 0.419-4.18-0.00551-6.75-1.62v-3h-3v-2c-2.48 0.99-2.48 0.99-5 2v-2c-0.99 0.33-1.98 0.66-3 1-0.33 0.99-0.66 1.98-1 3-0.33-1.32-0.66-2.64-1-4-2.64 0.66-5.28 1.32-8 2v-2c-1.98 0.99-3.96 1.98-6 3v-2c-0.763 0.33-1.53 0.66-2.31 1-2.69 1-2.69 1-5.69 1v-2h-2v2h-3c-0.33-0.99-0.66-1.98-1-3 4.95-0.33 9.9-0.66 15-1v-2c-3.2-0.0889-5.93 0.0894-9 1v-2l-2-1c2.16-2.16 7.2-1.72 10-2-3.96-0.33-7.92-0.66-12-1 4.37-2.19 7.47-2.2 12.2-2.06 2.61 0.0616 5.2 0.0831 7.81 0.0625 0.33-0.33 0.66-0.66 1-1-3.4-0.0292-6.79-0.0469-10.2-0.0625-0.96-0.00838-1.92-0.0168-2.91-0.0254-0.931-0.00322-1.86-0.00645-2.82-0.00977-0.854-0.00524-1.71-0.0105-2.59-0.0159-2.59 0.118-4.97 0.542-7.5 1.11 0.99 0.99 1.98 1.98 3 3-2.12 0.0269-4.25 0.0464-6.38 0.0625-1.18 0.0116-2.37 0.0232-3.59 0.0352-3.04-0.0977-3.04-0.0977-5.04-1.1-2.83-0.0306-5.64 0.0672-8.47 0.16-2.53-0.16-2.53-0.16-4.53-2.16-3.03-0.287-3.03-0.287-6.63-0.211-1.02 0.00197-1.02 0.00197-2.07 0.00398-2.26 0.00651-4.53 0.027-6.79 0.047-1.58 0.00627-3.16 0.0115-4.74 0.0158-4.18 0.0133-8.35 0.0378-12.5 0.0654-6.64 0.043-13.3 0.0731-19.9 0.096-2.3 0.0101-4.61 0.0272-6.91 0.045-7.61 0.0414-15.1-0.159-22.7-1.04-3.05-0.0251-4.95 0.794-7.74 1.98l-5-2c-3.34-0.193-6.66-0.102-10 0-3 0-3 0-5-1h-3.31c-3.11 0-5.68-0.271-8.69-1v-1c5.16-0.854 10.2-1.14 15.4-1.12z" fill="#5A6A67"/>
<path transform="translate(718,693)" d="m0 0c0.33 0.66 0.66 1.32 1 2h3v17h-2v2h2v304h-2v14c-0.66 0.33-1.32 0.66-2 1v-340z" fill="#5A6D69"/>
<path transform="translate(951,830)" d="m0 0c1.28 2.56 0.708 3.29 0 6-0.0994 1.69-0.148 3.39-0.161 5.09-0.00948 1.02-0.019 2.04-0.0287 3.09-0.00438 1.1-0.00876 2.21-0.0133 3.34-0.0103 1.73-0.0103 1.73-0.0208 3.49-0.0173 3.75-0.0235 7.5-0.026 11.2-0.00167 1.27-0.00334 2.54-0.00507 3.85-0.00154 19.5 0.78 38.5 3.26 57.9 0.218 1.9 0.434 3.79 0.645 5.69 0.423 3.77 0.873 7.54 1.36 11.3h-2c-0.124-1.2-0.247-2.39-0.375-3.62-0.32-2.62-0.734-4.68-1.62-7.19-1.21-3.85-1.43-7.49-1.66-11.5-0.23-2.69-0.23-2.69-1.31-5.09-2.17-5.46-2.1-10.6-1.53-16.4 0.696-8.79 0.154-17.4-0.5-26.2-1.65-0.33-3.3-0.66-5-1 1.32-0.66 2.64-1.32 4-2v-2c-0.619-0.0825-1.24-0.165-1.88-0.25-2.12-0.75-2.12-0.75-3.25-2.49-1-2.58-1.11-4.48-1.07-7.25 0.00645-0.935 0.0129-1.87 0.0195-2.83 0.0168-0.968 0.0335-1.94 0.0508-2.93 0.00902-0.984 0.018-1.97 0.0273-2.98 0.0235-2.42 0.0564-4.85 0.0977-7.27h5c0.33 0.66 0.66 1.32 1 2 0.33-1.65 0.66-3.3 1-5h2c-0.0412-0.784-0.0825-1.57-0.125-2.38 0.125-2.62 0.125-2.62 2.12-4.62z" fill="#5A6D69"/>
<path transform="translate(1066,1107)" d="m0 0c5.61 4.01 10.1 9.29 12 16v5c-3.63-0.66-7.26-1.32-11-2v-3h-2c1.11-2.22 2.49-4.04 4-6 0.33 1.32 0.66 2.64 1 4v-6c-0.66-0.33-1.32-0.66-2-1-1.58-2.63-2-3.87-2-7z" fill="#5A6D69"/>
<path transform="translate(693,1085)" d="m0 0c1.65 0.33 3.3 0.66 5 1v3c1.65 0.33 3.3 0.66 5 1 0.33 1.98 0.66 3.96 1 6h2c-0.33 0.99-0.66 1.98-1 3-2.06 0.688-2.06 0.688-4 1v-3c-1.65-0.33-3.3-0.66-5-1v2h-4c-0.33 0.99-0.66 1.98-1 3v-6c0.639-0.289 1.28-0.578 1.94-0.875 2.21-0.953 2.21-0.953 3.06-3.12-0.99-0.33-1.98-0.66-3-1 0.33-0.33 0.66-0.66 1-1-0.99-0.66-1.98-1.32-3-2h2v-2z" fill="#5A6D69"/>
<path transform="translate(830,1072)" d="m0 0c2 0.938 2 0.938 4 3 0.365 3.03 0.229 5.97 0 9h-6c-0.625-2.31-0.625-2.31-1-5 0.66-0.99 1.32-1.98 2-3h-2v-2h3v-2z" fill="#5A6D69"/>
<path transform="translate(444,1090)" d="m0 0h11c0.33 0.66 0.66 1.32 1 2 3.03 0.658 3.03 0.658 6 1v2c-2.35 1.18-3.88 1.17-6.5 1.19-0.794 0.0142-1.59 0.0284-2.41 0.043-2.09-0.23-2.09-0.23-4.09-2.23-0.866-0.516-1.73-1.03-2.62-1.56-0.784-0.474-1.57-0.949-2.38-1.44v-1z" fill="#5A6D69"/>
<path transform="translate(935,905)" d="m0 0h5c0.249 1.6 0.474 3.21 0.688 4.81 0.128 0.893 0.255 1.79 0.387 2.71-0.0742 2.48-0.0742 2.48-1.55 4.3-0.501 0.388-1 0.776-1.52 1.18-0.99-0.66-1.98-1.32-3-2-0.293-2.6-0.293-2.6-0.188-5.62 0.0271-1 0.0541-2.01 0.082-3.04 0.0348-0.771 0.0696-1.54 0.105-2.34z" fill="#5A6D69"/>
<path transform="translate(478,621)" d="m0 0h1c0.33 5.61 0.66 11.2 1 17h1v13c-0.99-0.33-1.98-0.66-3-1-1.32-3.23-1.04-6.42-0.879-9.86 0.0483-1.12 0.0967-2.23 0.146-3.38 0.0841-1.74 0.0841-1.74 0.17-3.51 0.0522-1.17 0.104-2.35 0.158-3.56 0.13-2.9 0.265-5.79 0.404-8.69z" fill="#5A6D69"/>
<path transform="translate(718,679)" d="m0 0h4v12c-0.99 0.33-1.98 0.66-3 1-1-1-1-1-1.1-3.72 0.0116-1.1 0.0232-2.2 0.0352-3.34 0.00902-1.1 0.018-2.21 0.0273-3.35 0.0116-0.855 0.0232-1.71 0.0352-2.59z" fill="#5A6D69"/>
<path transform="translate(1119,818)" d="m0 0c3.94 7.03 4.27 13.6 4.12 21.4-0.00902 0.922-0.018 1.84-0.0273 2.79-0.0234 2.26-0.0561 4.51-0.0977 6.77h-1c-0.33-5.61-0.66-11.2-1-17h-1c-0.0735-1.07-0.0735-1.07-0.148-2.15-0.112-1.38-0.112-1.38-0.227-2.79-0.0696-0.917-0.139-1.83-0.211-2.78-0.137-0.754-0.273-1.51-0.414-2.29-0.66-0.33-1.32-0.66-2-1h2v-3z" fill="#5A6D69"/>
<path transform="translate(943,878)" d="m0 0c0.125 2.88 0.125 2.88 0 6-0.66 0.66-1.32 1.32-2 2-3.69-1.23-4.72-2.94-7-6 3.13-1.86 5.37-2.2 9-2z" fill="#5A6D69"/>
<path transform="translate(690,624)" d="m0 0c12.7-0.554 12.7-0.554 18 3-0.33 0.99-0.66 1.98-1 3-0.557-0.193-1.11-0.387-1.69-0.586-5.06-1.73-10.1-3.18-15.3-4.41v-1z" fill="#5A6D69"/>
<path transform="translate(315,751)" d="m0 0c8.57-0.286 8.57-0.286 12 2-2.97 1.65-5.61 2.66-9 3-2.31-0.938-2.31-0.938-4-2 0.33-0.99 0.66-1.98 1-3z" fill="#5A6D69"/>
<path transform="translate(1142,616)" d="m0 0c2.88 1 2.88 1 5 2v2c-1.77 0.0541-3.54 0.0928-5.31 0.125-1.48 0.0348-1.48 0.0348-2.99 0.0703-2.7-0.195-2.7-0.195-5.7-2.2 3.51-2.34 4.88-2.33 9-2z" fill="#5A6D69"/>
<path transform="translate(632,1093)" d="m0 0h6c-0.33 2.64-0.66 5.28-1 8h-4c-0.33-2.64-0.66-5.28-1-8z" fill="#5A6D69"/>
<path transform="translate(1294,801)" d="m0 0c1.65 1.32 3.3 2.64 5 4-2.31 0.66-4.62 1.32-7 2-0.66-1.32-1.32-2.64-2-4 1.32-0.66 2.64-1.32 4-2z" fill="#5A6D69"/>
<path transform="translate(1127,732)" d="m0 0h1c0.197 1.73 0.382 3.46 0.562 5.19 0.104 0.963 0.209 1.93 0.316 2.92 0.119 2.84-0.201 5.15-0.879 7.89-1.56-1.25-1.56-1.25-3-3 0.375-1.81 0.375-1.81 1-4 0.212-1.58 0.399-3.16 0.562-4.75 0.0838-0.799 0.168-1.6 0.254-2.42 0.0606-0.603 0.121-1.21 0.184-1.83z" fill="#5A6D69"/>
<path transform="translate(481,623)" d="m0 0h2c1.16 3.47 1.07 6.36 1 10-0.99 0.33-1.98 0.66-3 1v-11z" fill="#5A6D69"/>
<path transform="translate(523,1087)" d="m0 0h13c-2.4 2.4-3.33 2.34-6.62 2.62-0.817 0.0748-1.63 0.15-2.48 0.227-0.626 0.049-1.25 0.098-1.9 0.148-0.66-0.99-1.32-1.98-2-3z" fill="#5A6D69"/>
<path transform="translate(1118,778)" d="m0 0c0.99 0.33 1.98 0.66 3 1h-2v2c0.99 0.33 1.98 0.66 3 1-0.33 0.66-0.66 1.32-1 2h-4c-0.33 0.99-0.66 1.98-1 3-0.25-5.62-0.25-5.62 2-9z" fill="#5A6D69"/>
</svg>
